<?xml version="1.0" encoding="iso-8859-1"?>
<!-- Generator: Adobe Illustrator 19.0.0, SVG Export Plug-In . SVG Version: 6.00 Build 0)  -->
<svg version="1.1" id="Capa_1" xmlns="http://www.w3.org/2000/svg" xmlns:xlink="http://www.w3.org/1999/xlink" x="0px" y="0px"
	 viewBox="0 0 512 512" style="enable-background:new 0 0 512 512;" xml:space="preserve">
<g>
	<circle style="fill:#37474F;" cx="74.667" cy="96" r="53.333"/>
	<path style="fill:#37474F;" d="M74.667,170.667C33.429,170.667,0,204.096,0,245.333V352c0,5.891,4.776,10.667,10.667,10.667h128
		c5.891,0,10.667-4.776,10.667-10.667V245.333C149.333,204.096,115.904,170.667,74.667,170.667z"/>
	<circle style="fill:#37474F;" cx="213.333" cy="85.333" r="64"/>
	<path style="fill:#37474F;" d="M213.333,170.667C166.205,170.667,128,208.872,128,256v160c0,5.891,4.776,10.667,10.667,10.667H288
		c5.891,0,10.667-4.776,10.667-10.667V256C298.667,208.872,260.462,170.667,213.333,170.667z"/>
	<circle style="fill:#37474F;" cx="394.667" cy="96" r="96"/>
	<path style="fill:#37474F;" d="M394.667,213.333c-64.767,0.082-117.251,52.566-117.333,117.333v170.667
		c0,5.891,4.776,10.667,10.667,10.667h213.333c5.891,0,10.667-4.776,10.667-10.667V330.667
		C511.918,265.899,459.434,213.416,394.667,213.333z"/>
</g>
<g>
</g>
<g>
</g>
<g>
</g>
<g>
</g>
<g>
</g>
<g>
</g>
<g>
</g>
<g>
</g>
<g>
</g>
<g>
</g>
<g>
</g>
<g>
</g>
<g>
</g>
<g>
</g>
<g>
</g>
</svg>
