<?xml version="1.0" encoding="iso-8859-1"?>
<!-- Generator: Adobe Illustrator 19.0.0, SVG Export Plug-In . SVG Version: 6.00 Build 0)  -->
<svg version="1.1" id="Capa_1" xmlns="http://www.w3.org/2000/svg" xmlns:xlink="http://www.w3.org/1999/xlink" x="0px" y="0px"
	 viewBox="0 0 512 512" style="enable-background:new 0 0 512 512;" xml:space="preserve">
<g>
	<g>
		<path style="fill:#1df8f2;" d="M256,0C114.844,0,0,114.844,0,256s114.844,256,256,256s256-114.844,256-256S397.156,0,256,0z M361.854,217.417
			c-1.646,3.99-5.542,6.583-9.854,6.583h-21.333c-2.833,0-5.542-1.125-7.542-3.125l-45.792-45.792v219.583
			c0,5.896-4.771,10.667-10.667,10.667h-21.333c-5.896,0-10.667-4.771-10.667-10.667V175.083l-45.792,45.792
			c-2,2-4.708,3.125-7.542,3.125H160c-4.313,0-8.208-2.594-9.854-6.583c-1.667-4-0.74-8.573,2.313-11.625l96-96
			c4.167-4.167,10.917-4.167,15.083,0l96,96c2.042,2.042,3.125,4.771,3.125,7.542C362.667,214.708,362.406,216.094,361.854,217.417z
			"/>
	</g>
</g>
<g>
</g>
<g>
</g>
<g>
</g>
<g>
</g>
<g>
</g>
<g>
</g>
<g>
</g>
<g>
</g>
<g>
</g>
<g>
</g>
<g>
</g>
<g>
</g>
<g>
</g>
<g>
</g>
<g>
</g>
</svg>
